<?xml version="1.0" encoding="UTF-8"?>
<svg id="Capa_2" data-name="Capa 2" xmlns="http://www.w3.org/2000/svg" viewBox="0 0 413.821 156.013">
  <defs>
    <style>
      .cls-1 {
        stroke: #d3d0cf;
      }

      .cls-1, .cls-2, .cls-3 {
        stroke-miterlimit: 10;
        stroke-width: 9px;
      }

      .cls-1, .cls-4 {
        fill: #d3d0cf;
      }

      .cls-5 {
        fill: #fff;
      }

      .cls-2 {
        fill: #0070ac;
      }

      .cls-2, .cls-3 {
        stroke: #0070ac;
      }

      .cls-6 {
        fill: #0070ad;
      }

      .cls-3 {
        fill: none;
      }

      .cls-7 {
        fill: #0070ab;
      }
    </style>
  </defs>
  <g id="Capa_1-2" data-name="Capa 1">
    <g>
      <line class="cls-1" x1="80.435" y1="144.947" x2="80.435" y2="78.006"/>
      <line class="cls-1" x1="80.435" y1="77.671" x2="80.435" y2="10.729"/>
      <line class="cls-1" x1="77.671" y1="78.006" x2="10.729" y2="78.006"/>
      <line class="cls-2" x1="30.682" y1="128.719" x2="30.682" y2="28.955"/>
      <line class="cls-2" x1="130.447" y1="128.719" x2="130.447" y2="28.955"/>
      <line class="cls-3" x1="130.447" y1="28.955" x2="80.435" y2="78.006"/>
      <line class="cls-3" x1="30.682" y1="28.955" x2="80.435" y2="78.006"/>
      <g>
        <circle class="cls-4" cx="80.435" cy="10.729" r="10.729"/>
        <circle class="cls-5" cx="80.435" cy="10.729" r="6.76"/>
      </g>
      <g>
        <circle class="cls-7" cx="80.435" cy="77.671" r="10.729"/>
        <circle class="cls-5" cx="80.435" cy="77.671" r="6.76"/>
      </g>
      <g>
        <circle class="cls-7" cx="130.446" cy="28.955" r="10.729"/>
        <circle class="cls-5" cx="130.446" cy="28.955" r="6.76"/>
      </g>
      <g>
        <circle class="cls-7" cx="30.682" cy="28.955" r="10.729"/>
        <circle class="cls-5" cx="30.682" cy="28.955" r="6.76"/>
      </g>
      <g>
        <circle class="cls-4" cx="80.435" cy="145.284" r="10.729"/>
        <circle class="cls-5" cx="80.435" cy="145.284" r="6.76"/>
      </g>
      <g>
        <circle class="cls-4" cx="130.446" cy="128.719" r="10.729"/>
        <circle class="cls-5" cx="130.446" cy="128.719" r="6.76"/>
      </g>
      <g>
        <circle class="cls-4" cx="30.682" cy="128.719" r="10.729"/>
        <circle class="cls-5" cx="30.682" cy="128.719" r="6.76"/>
      </g>
      <g>
        <circle class="cls-4" cx="10.729" cy="77.671" r="10.729"/>
        <circle class="cls-5" cx="10.729" cy="77.671" r="6.76"/>
      </g>
    </g>
    <g>
      <path class="cls-6" d="M148.848,103.339c0,1.371-.604,2.058-1.812,2.058h-4.339c-1.208,0-1.812-.687-1.812-2.058v-39.528c0-1.372.604-2.057,1.812-2.057h4.339c1.208,0,1.812.686,1.812,2.057v39.528Z"/>
      <path class="cls-6" d="M166.916,105.397c-3.662,0-6.453-1.111-8.375-3.336-1.922-2.223-2.884-5.393-2.884-9.508v-17.956c0-4.115.962-7.284,2.884-9.508,1.922-2.223,4.713-3.335,8.375-3.335h38.77c3.661,0,6.453,1.112,8.375,3.335,1.922,2.224,2.884,5.393,2.884,9.508v17.956c0,4.115-.962,7.285-2.884,9.508-1.922,2.225-4.714,3.336-8.375,3.336h-38.77ZM203.599,97.479c1.758,0,3.104-.53,4.037-1.59.934-1.06,1.4-2.587,1.4-4.583v-15.462c0-1.995-.467-3.522-1.4-4.583s-2.279-1.59-4.037-1.59h-34.597c-1.757,0-3.103.53-4.036,1.59s-1.4,2.587-1.4,4.583v15.462c0,1.995.467,3.522,1.4,4.583.934,1.06,2.279,1.59,4.036,1.59h34.597Z"/>
      <path class="cls-4" d="M271.202,61.754c1.793,0,3.404.187,4.832.561,1.429.374,2.627.998,3.598,1.87.97.873,1.711,2.017,2.224,3.429.513,1.414.77,3.139.77,5.175v.749c0,2.743-.467,4.905-1.4,6.484-.934,1.58-2.262,2.723-3.981,3.429,1.902.707,3.367,1.861,4.393,3.46,1.024,1.601,1.538,3.834,1.538,6.702v.748c0,2.037-.257,3.762-.769,5.174-.514,1.414-1.255,2.557-2.225,3.43-.971.873-2.169,1.496-3.597,1.87s-3.04.562-4.833.562h-46.186c-1.208,0-1.812-.687-1.812-2.058v-39.528c0-1.372.604-2.057,1.812-2.057h45.637ZM231.717,79.71h38.112c1.647,0,2.874-.364,3.68-1.091.805-.727,1.208-1.901,1.208-3.522v-.811c0-1.621-.376-2.795-1.126-3.523-.751-.727-1.949-1.091-3.597-1.091h-38.277v10.038ZM231.717,87.441v10.038h38.826c1.647,0,2.846-.364,3.597-1.091.75-.727,1.126-1.901,1.126-3.522v-.811c0-1.621-.403-2.795-1.208-3.523-.806-.727-2.032-1.091-3.68-1.091h-38.661Z"/>
      <path class="cls-4" d="M299.539,105.397c-3.662,0-6.453-1.111-8.375-3.336-1.922-2.223-2.884-5.393-2.884-9.508v-17.956c0-4.115.962-7.284,2.884-9.508,1.922-2.223,4.713-3.335,8.375-3.335h38.771c3.661,0,6.453,1.112,8.375,3.335,1.922,2.224,2.884,5.393,2.884,9.508v17.956c0,4.115-.962,7.285-2.884,9.508-1.922,2.225-4.714,3.336-8.375,3.336h-38.771ZM336.223,97.479c1.758,0,3.104-.53,4.037-1.59.934-1.06,1.4-2.587,1.4-4.583v-15.462c0-1.995-.467-3.522-1.4-4.583s-2.279-1.59-4.037-1.59h-34.598c-1.757,0-3.103.53-4.036,1.59s-1.4,2.587-1.4,4.583v15.462c0,1.995.467,3.522,1.4,4.583.934,1.06,2.279,1.59,4.036,1.59h34.598Z"/>
      <path class="cls-4" d="M382.574,87.752l-19.222,16.46c-.549.458-1.034.77-1.455.935-.421.167-1.016.25-1.785.25h-6.754c-.514,0-.843-.291-.989-.873s0-1.06.439-1.434l23.175-19.64-22.845-19.39c-.439-.374-.587-.852-.439-1.434.146-.582.475-.873.988-.873h7.029c.769,0,1.363.083,1.785.249.42.167.887.479,1.4.936l18.946,16.21,18.891-16.21c.55-.457,1.034-.769,1.456-.936.42-.166,1.016-.249,1.784-.249h6.755c.513,0,.842.291.988.873.146.583,0,1.06-.438,1.434l-22.791,19.39,23.065,19.64c.439.374.585.852.439,1.434-.147.582-.477.873-.989.873h-6.974c-.806,0-1.42-.083-1.84-.25-.422-.165-.889-.477-1.4-.935l-19.221-16.46Z"/>
    </g>
  </g>
</svg>